<?xml version="1.0" encoding="UTF-8" standalone="no"?>
<!-- Created with Inkscape (http://www.inkscape.org/) -->

<svg
   xmlns:dc="http://purl.org/dc/elements/1.1/"
   xmlns:cc="http://creativecommons.org/ns#"
   xmlns:rdf="http://www.w3.org/1999/02/22-rdf-syntax-ns#"
   xmlns:svg="http://www.w3.org/2000/svg"
   xmlns="http://www.w3.org/2000/svg"
   xmlns:sodipodi="http://sodipodi.sourceforge.net/DTD/sodipodi-0.dtd"
   xmlns:inkscape="http://www.inkscape.org/namespaces/inkscape"
   version="1.1"
   width="339.08875"
   height="454.01376"
   id="svg2"
   inkscape:version="0.48.3.1 r9886"
   sodipodi:docname="icons-converted-brightmix.svg">
  <metadata
     id="metadata3416">
    <rdf:RDF>
      <cc:Work
         rdf:about="">
        <dc:format>image/svg+xml</dc:format>
        <dc:type
           rdf:resource="http://purl.org/dc/dcmitype/StillImage" />
        <dc:title></dc:title>
      </cc:Work>
    </rdf:RDF>
  </metadata>
  <sodipodi:namedview
     pagecolor="#ffffff"
     bordercolor="#666666"
     borderopacity="1"
     objecttolerance="10"
     gridtolerance="10"
     guidetolerance="10"
     inkscape:pageopacity="0"
     inkscape:pageshadow="2"
     inkscape:window-width="1366"
     inkscape:window-height="706"
     id="namedview3414"
     showgrid="false"
     inkscape:zoom="2"
     inkscape:cx="-187.03272"
     inkscape:cy="326.59405"
     inkscape:window-x="0"
     inkscape:window-y="14"
     inkscape:window-maximized="1"
     inkscape:current-layer="svg2" />
  <defs
     id="defs4">
    <clipPath
       id="clipPath2855">
      <path
         d="m 0,0 6120,0 0,7010.51 -6120,0 L 0,0 z"
         id="path2857" />
    </clipPath>
  </defs>
  <path
     inkscape:connector-curvature="0"
     style="fill:#100f0d;fill-opacity:1;fill-rule:nonzero;stroke:none"
     id="path2859"
     d="m 138.16501,124.50375 -0.001,0 -10.95375,-10.955 4.9925,-4.99375 5.96125,5.96375 13.4,-13.40125 c -3.35375,-3.14625 -7.8525,-5.0875 -12.81375,-5.0875 -10.35625,0 -18.75,8.39375 -18.75,18.75 0,10.35375 8.39375,18.75 18.75,18.75 10.35375,0 18.75,-8.39625 18.75,-18.75 0,-2.8125 -0.63625,-5.47 -1.74625,-7.865 l -17.58875,17.58875" />
  <path
     inkscape:connector-curvature="0"
     style="fill:#100f0d;fill-opacity:1;fill-rule:nonzero;stroke:none"
     id="path2861"
     d="m 207.82499,104.5 -5.82625,-5.82875 -17.415,17.41375 -6.9575,-6.96 -5.8275,5.8275 12.78501,12.7875 0.002,0 23.23874,-23.24" />
  <path
     inkscape:connector-curvature="0"
     style="fill:#100f0d;fill-opacity:1;fill-rule:nonzero;stroke:none"
     id="path2863"
     d="m 28.74562,295.6725 c -0.145,1.4625 -0.61175,2.825 -1.31687,4.0325 l 1.04988,3.23 -4.86338,3.53625 -2.74112,-1.9925 c -0.68563,0.14875 -1.39501,0.22875 -2.12413,0.22875 -0.7285,0 -1.43837,-0.08 -2.124,-0.22875 l -2.74025,1.9925 -4.86425,-3.53625 1.05038,-3.23 C 9.36675,298.4975 8.9,297.135 8.7545,295.6725 l -2.73925,-1.99 1.85837,-5.72 3.40275,0 c 0.94538,-1.0525 2.10501,-1.90875 3.418,-2.49 l 1.04938,-3.2275 6.01312,0 1.04938,3.2275 c 1.3125,0.58125 2.47212,1.4375 3.4175,2.49 l 3.40275,0 1.85837,5.72 -2.73925,1.99 z M 18.75,275.91875 c -10.35487,0 -18.75,8.39375 -18.75,18.75 0,10.35375 8.39513,18.75 18.75,18.75 10.3555,0 18.75,-8.39625 18.75,-18.75 0,-10.35625 -8.3945,-18.75 -18.75,-18.75" />
  <path
     inkscape:connector-curvature="0"
     style="fill:#100f0d;fill-opacity:1;fill-rule:nonzero;stroke:none"
     id="path2865"
     d="m 28.86475,338.65625 c 0,0.54875 -0.0561,1.08375 -0.14013,1.61 l 2.50488,2.02 -3.09563,5.36125 -2.99325,-1.15375 c -0.8315,0.67875 -1.77625,1.22 -2.79774,1.60875 l -0.49713,3.17625 -6.19138,0 -0.49812,-3.17625 c -1.0205,-0.38875 -1.96525,-0.93 -2.79775,-1.60875 l -2.99175,1.15375 -3.09575,-5.36125 2.50488,-2.02 c -0.0844,-0.52625 -0.1405,-1.06125 -0.1405,-1.61 0,-0.54875 0.0561,-1.08375 0.1405,-1.60875 L 6.271,335.02625 9.36675,329.665 12.3585,330.81875 C 13.191,330.14125 14.13575,329.6 15.15625,329.21 l 0.49812,-3.17625 6.19038,0 0.49813,3.17625 c 1.0205,0.39 1.96625,0.93125 2.79775,1.60875 l 2.99324,-1.15375 3.09563,5.36125 -2.50487,2.02125 c 0.084,0.525 0.14012,1.06 0.14012,1.60875 z M 18.75,319.90625 c -10.35487,0 -18.75,8.39375 -18.75,18.75 0,10.35375 8.39513,18.75 18.75,18.75 10.3555,0 18.75,-8.39625 18.75,-18.75 0,-10.35625 -8.3945,-18.75 -18.75,-18.75" />
  <path
     inkscape:connector-curvature="0"
     style="fill:#100f0d;fill-opacity:1;fill-rule:nonzero;stroke:none"
     id="path2867"
     d="m 63.74999,346.4225 c -4.28875,0 -7.765,-3.47625 -7.765,-7.76625 0,-4.2875 3.47625,-7.76375 7.765,-7.76375 4.2875,0 7.76375,3.47625 7.76375,7.76375 0,4.29 -3.47625,7.76625 -7.76375,7.76625 z m 15.025,-7.76625 c 0,-0.815 -0.0825,-1.61 -0.20875,-2.39 l 3.2375,-2.6125 c -0.86125,-3.11 -2.4875,-5.89875 -4.68625,-8.135 l -3.875,1.4975 c -1.235,-1.01 -2.63875,-1.815 -4.155,-2.39125 l -0.64375,-4.10125 c -1.5025,-0.3875 -3.07,-0.6175 -4.69375,-0.6175 -1.625,0 -3.1925,0.23 -4.695,0.6175 l -0.64375,4.10125 c -1.51625,0.57625 -2.92,1.38125 -4.155,2.39125 l -3.8775,-1.495 c -2.1975,2.23625 -3.82375,5.02375 -4.68375,8.1325 l 3.2375,2.6125 c -0.12625,0.78 -0.20875,1.575 -0.20875,2.39 0,0.81625 0.0838,1.61125 0.20875,2.39125 l -3.2375,2.61375 c 0.86125,3.1075 2.4875,5.89625 4.68625,8.1325 l 3.87625,-1.495 c 1.23375,1.00875 2.63875,1.8125 4.15375,2.39125 l 0.64375,4.10125 c 1.5025,0.3875 3.07,0.615 4.695,0.615 1.62375,0 3.19125,-0.2275 4.69375,-0.615 L 69.08749,352.69 c 1.51625,-0.57875 2.92,-1.3825 4.155,-2.39125 l 3.875,1.495 c 2.19875,-2.23625 3.825,-5.025 4.68625,-8.13375 l -3.2375,-2.6125 c 0.12625,-0.78 0.20875,-1.575 0.20875,-2.39125" />
  <path
     inkscape:connector-curvature="0"
     style="fill:#100f0d;fill-opacity:1;fill-rule:nonzero;stroke:none"
     id="path2869"
     d="m 56.12249,241.0575 c -1.12375,1.12375 -2.9425,1.12375 -4.0675,0 -1.1225,-1.12375 -1.1225,-2.945 0,-4.06625 1.125,-1.125 2.94375,-1.125 4.0675,0 1.12375,1.12125 1.12375,2.9425 0,4.06625 z m 7.1175,-9.15125 -10.1675,0 -6.10125,6.1 0,10.17 17.28625,17.285 L 80.5275,249.1925 63.24,231.90625" />
  <path
     inkscape:connector-curvature="0"
     style="fill:#100f0d;fill-opacity:1;fill-rule:nonzero;stroke:none"
     id="path2871"
     d="m 11.18412,241.50625 c -0.81787,0.8175 -0.81787,2.1425 0,2.96125 0.81938,0.82 2.14363,0.82 2.96288,0 0.81787,-0.81875 0.81787,-2.14375 0,-2.96125 -0.81925,-0.81875 -2.1435,-0.81875 -2.96288,0" />
  <path
     inkscape:connector-curvature="0"
     style="fill:#100f0d;fill-opacity:1;fill-rule:nonzero;stroke:none"
     id="path2873"
     d="m 20.07325,262.24625 -12.59275,-12.5925 0,-7.40875 4.44338,-4.4425 7.40724,0 12.59426,12.5925 -11.85213,11.85125 z M 18.75,229.93375 c -10.35487,0 -18.75,8.39625 -18.75,18.75 0,10.35625 8.39513,18.75 18.75,18.75 10.3555,0 18.75,-8.39375 18.75,-18.75 0,-10.35375 -8.3945,-18.75 -18.75,-18.75" />
  <path
     inkscape:connector-curvature="0"
     style="fill:#100f0d;fill-opacity:1;fill-rule:nonzero;stroke:none"
     id="path2875"
     d="m 25.917,165.63125 c -2.63813,1.49625 -10.76313,6.27125 -10.76313,6.27125 l 2.561,-4.96125 c -7.06537,-0.3475 -12.63675,-4.195 -12.63675,-8.90625 0,-4.9375 6.12063,-8.94125 13.67188,-8.94125 7.55375,0 13.67437,4.00375 13.67437,8.94125 0,3.37625 -4.0185,6.18375 -6.50737,7.59625 z m -7.167,-25.67 c -10.354,0 -18.75,8.3925 -18.75,18.75 0,10.35375 8.396,18.75 18.75,18.75 10.3565,0 18.75,-8.39625 18.75,-18.75 0,-10.3575 -8.3935,-18.75 -18.75,-18.75" />
  <path
     inkscape:connector-curvature="0"
     style="fill:#100f0d;fill-opacity:1;fill-rule:nonzero;stroke:none"
     id="path2877"
     d="m 63.74749,145.365 c -9.665,0 -17.4975,5.125 -17.4975,11.44375 0,6.03 7.13,10.955 16.17375,11.39875 l -3.27875,6.35125 c 0,0 10.39875,-6.1125 13.775,-8.02875 3.185,-1.80625 8.33,-5.4 8.33,-9.72125 0,-6.31875 -7.835,-11.44375 -17.5025,-11.44375" />
  <path
     inkscape:connector-curvature="0"
     style="fill:#100f0d;fill-opacity:1;fill-rule:nonzero;stroke:none"
     id="path2879"
     d="m 172.5025,84.89125 9.78374,-2.6225 -7.12374,-7.12375 -2.66,9.74625" />
  <path
     inkscape:connector-curvature="0"
     style="fill:#100f0d;fill-opacity:1;fill-rule:nonzero;stroke:none"
     id="path2881"
     d="m 183.57499,80.985 18.5175,-18.5225 -7.12374,-7.12375 -18.52,18.5225 7.12625,7.12375" />
  <path
     inkscape:connector-curvature="0"
     style="fill:#100f0d;fill-opacity:1;fill-rule:nonzero;stroke:none"
     id="path2883"
     d="m 203.51875,61.03625 3.13375,-3.13375 c 0.62625,-0.62625 0.62625,-1.6525 0,-2.28 l -4.84375,-4.84375 c -0.62625,-0.62625 -1.6525,-0.62625 -2.28125,0 l -3.1325,3.13625 7.12375,7.12125" />
  <path
     inkscape:connector-curvature="0"
     style="fill:#100f0d;fill-opacity:1;fill-rule:nonzero;stroke:none"
     id="path2885"
     d="m 132.53375,78.0525 2.41625,-8.85 6.46875,6.47 -8.885,2.38 z m 10.055,-3.54625 -6.47,-6.47 14.91375,-14.9175 C 147.74,50.2575 143.45375,48.515 138.75,48.515 c -10.355,0 -18.75,8.3925 -18.75,18.75 0,10.35375 8.395,18.75 18.75,18.75 10.355,0 18.75,-8.39625 18.75,-18.75 0,-2.28875 -0.43,-4.46875 -1.17875,-6.495 l -13.7325,13.73625" />
  <path
     inkscape:connector-curvature="0"
     style="fill:#100f0d;fill-opacity:1;fill-rule:nonzero;stroke:none"
     id="path2887"
     d="M 63.74999,29.685 52.18124,36.5525 55.13999,23.42875 45.03249,14.55 58.4275,13.30625 63.75,0.95 69.07124,13.30625 82.46625,14.55 72.36,23.42875 75.3175,36.5525 63.75,29.685" />
  <path
     inkscape:connector-curvature="0"
     style="fill:#100f0d;fill-opacity:1;fill-rule:nonzero;stroke:none"
     id="path2889"
     d="M 26.87262,30.62625 18.75,25.8025 10.625,30.62625 12.70275,21.41 5.6055,15.175 15.01225,14.3025 18.75,5.62625 22.48537,14.3025 31.89213,15.175 24.795,21.41 26.87262,30.62625 z M 18.75,0.00125 C 8.39363,0.00125 0,8.395 0,18.75125 c 0,10.35375 8.39363,18.75 18.75,18.75 10.35412,0 18.75,-8.39625 18.75,-18.75 0,-10.35625 -8.39588,-18.75 -18.75,-18.75" />
  <path
     inkscape:connector-curvature="0"
     style="fill:#100f0d;fill-opacity:1;fill-rule:nonzero;stroke:none"
     id="path2891"
     d="m 104.43375,70.84875 c -0.47749,0 -0.865,-0.38875 -0.865,-0.8675 -0.007,-4.01625 -3.25374,-7.26 -7.26625,-7.2675 l 0,0 c -0.47625,0 -0.865,-0.38875 -0.865,-0.86625 0,-0.47875 0.38875,-0.865 0.865,-0.865 4.97125,0 8.99625,4.02875 8.99875,8.99875 0,0.47875 -0.38875,0.8675 -0.8675,0.8675 z m -3.45375,0 c -0.47749,0 -0.86625,-0.38875 -0.86625,-0.8675 -0.002,-2.10375 -1.705,-3.8075 -3.80875,-3.81 -0.47875,0 -0.8675,-0.38875 -0.8675,-0.87 0,-0.47625 0.38875,-0.86125 0.8675,-0.86125 3.05875,0 5.54,2.48 5.5425,5.54125 0,0.47875 -0.38875,0.8675 -0.8675,0.8675 z m -4.675,1.33 c -1.215,0 -2.1975,-0.98375 -2.1975,-2.1975 0,-1.2125 0.9825,-2.19625 2.1975,-2.19625 1.21375,0 2.19625,0.98375 2.19625,2.19625 0,1.21375 -0.9825,2.1975 -2.19625,2.1975 z m 3.07,-14.74125 c -5.17625,0 -9.375,4.1975 -9.375,9.375 0,5.17625 4.19875,9.375 9.375,9.375 5.1775,0 9.375,-4.19875 9.375,-9.375 0,-5.1775 -4.1975,-9.375 -9.375,-9.375" />
  <path
     inkscape:connector-curvature="0"
     style="fill:#100f0d;fill-opacity:1;fill-rule:nonzero;stroke:none"
     id="path2893"
     d="M 27.61625,74.70375 C 26.78962,65.7825 19.70225,58.6975 10.78125,57.865 L 11.128,54.31 c 10.61762,0.975 19.06637,9.42625 20.04637,20.04625 l -3.55812,0.3475 z M 20.442,75.46 C 19.96337,69.93 15.63237,65.52125 10.14312,64.92125 l 0.34763,-3.5575 C 17.67825,62.12 23.36437,67.8875 24.004,75.11125 L 20.442,75.46 z m -9.87313,0.89125 c -0.7885,-0.015 -1.42325,-0.64875 -1.4365,-1.44 l 0.61376,-6.2425 c 3.73537,0.35875 6.70799,3.335 7.06787,7.07 l -6.24513,0.6125 z M 18.75,47.9875 C 8.39362,47.9855 0,56.37875 0,66.7375 c 0,10.35375 8.39362,18.75 18.75,18.75 10.35412,0 18.7515,-8.39625 18.7515,-18.75 0,-10.35875 -8.396,-18.7525 -18.7515,-18.75" />
  <path
     inkscape:connector-curvature="0"
     style="fill:#100f0d;fill-opacity:1;fill-rule:nonzero;stroke:none"
     id="path2895"
     d="m 51.83499,61.84625 -0.42875,4.385 c 6.76875,0.74125 12.10875,6.18 12.7,12.995 l 4.39,-0.43125 C 67.70749,69.89 60.69749,62.78 51.83499,61.84625" />
  <path
     inkscape:connector-curvature="0"
     style="fill:#100f0d;fill-opacity:1;fill-rule:nonzero;stroke:none"
     id="path2897"
     d="m 50.91499,70.8525 -0.755,7.69875 c 0.0175,0.975 0.80001,1.75625 1.77001,1.775 L 59.63249,79.57 c -0.44375,-4.605 -4.10874,-8.27375 -8.7175,-8.7175" />
  <path
     inkscape:connector-curvature="0"
     style="fill:#100f0d;fill-opacity:1;fill-rule:nonzero;stroke:none"
     id="path2899"
     d="m 52.62124,53.14875 -0.42875,4.38375 c 11.00125,1.02625 19.73875,9.76125 20.75875,20.76375 l 4.3875,-0.42875 C 76.12999,64.77125 65.71249,54.35125 52.62124,53.14875" />
  <path
     inkscape:connector-curvature="0"
     style="fill:#100f0d;fill-opacity:1;fill-rule:nonzero;stroke:none"
     id="path2901"
     d="m 331.20125,206.385 c -2.02874,1.2225 -4.66125,0.57375 -5.88125,-1.4525 -1.22375,-2.0275 -0.57125,-4.65875 1.4525,-5.88 2.02875,-1.225 4.66,-0.57625 5.88125,1.4525 1.2225,2.025 0.57125,4.65875 -1.4525,5.88 z m 5.89625,6.45 -3.18624,-5.28125 c 2.15499,-2.1975 2.65125,-5.64625 0.98874,-8.4025 -1.97,-3.2675 -6.21624,-4.32 -9.485,-2.34875 -3.26374,1.97 -4.31375,6.2175 -2.34375,9.4825 1.66251,2.76125 4.94625,3.93 7.895,3.04375 l 3.18625,5.28375 c 0.49125,0.815 1.55,1.07625 2.36125,0.585 0.81,-0.4875 1.07625,-1.5475 0.58375,-2.3625" />
  <path
     inkscape:connector-curvature="0"
     style="fill:#100f0d;fill-opacity:1;fill-rule:nonzero;stroke:none"
     id="path2903"
     d="m 149.6875,13.0975 -9.0775,6.29 c -0.44499,0.3125 -1.14999,0.5175 -1.86,0.515 -0.71625,0.002 -1.42125,-0.2025 -1.8625,-0.515 l -9.07375,-6.2875 0,-2.165 21.87375,0 0,2.1625 z m 0,13.4675 -21.87374,0 0,-10.425 7.64875,5.3025 c 0.975,0.66625 2.135,0.955 3.2875,0.96 1.1475,-0.002 2.30625,-0.29375 3.28375,-0.96 l 7.65375,-5.3025 0,10.425 z M 138.75,0 C 128.39625,0 120,8.39375 120,18.75 c 0,10.35375 8.39625,18.75 18.75,18.75 10.35625,0 18.75,-8.39625 18.75,-18.75 C 157.5,8.39375 149.10625,0 138.75,0" />
  <path
     inkscape:connector-curvature="0"
     style="fill:#100f0d;fill-opacity:1;fill-rule:nonzero;stroke:none"
     id="path2905"
     d="m 199.63375,143.98875 -11.77375,9.6675 -7.87,0 0,13.81375 7.86374,0 11.77376,9.66875 0.006,-33.15" />
  <path
     inkscape:connector-curvature="0"
     style="fill:#100f0d;fill-opacity:1;fill-rule:nonzero;stroke:none"
     id="path2907"
     d="m 18.75,183.96375 c -10.35637,0 -18.75,8.39625 -18.75,18.75 0,2.695 0.57863,5.25125 1.60163,7.56625 l 10.01124,-15.87875 4.69575,2.96 c -0.66399,0.31875 -1.25337,0.81375 -1.67475,1.4825 l -7.39499,11.775 c -0.47613,0.75125 -0.63238,1.60375 -0.45901,2.3725 0.16988,0.77 0.65913,1.435 1.33788,1.8575 0.67388,0.4275 1.48675,0.57875 2.25338,0.39625 0.76912,-0.175 1.46725,-0.6875 1.9375,-1.44 l 4.67874,-7.45125 c 0.26125,-0.415 0.13676,-0.96125 -0.27837,-1.22 -0.415,-0.26125 -0.96188,-0.1375 -1.22312,0.27625 l -4.67875,7.45125 c -0.26025,0.40875 -0.55313,0.59 -0.84125,0.66125 -0.28813,0.065 -0.59575,0.0188 -0.90575,-0.17375 -0.30863,-0.195 -0.48338,-0.45375 -0.54938,-0.7425 -0.062,-0.29 -0.0267,-0.6325 0.22863,-1.04375 l 7.39599,-11.77375 c 0.53213,-0.84625 1.52726,-1.21 2.44863,-0.99375 L 29.41412,205.62375 19.44975,221.43 C 29.47762,221.05875 37.5,212.835 37.5,202.71375 c 0,-10.35375 -8.39588,-18.75 -18.75,-18.75" />
  <path
     inkscape:connector-curvature="0"
     style="fill:#100f0d;fill-opacity:1;fill-rule:nonzero;stroke:none"
     id="path2909"
     d="m 105.56375,194.785 c -1.45749,-0.915 -3.37874,-0.47625 -4.29499,0.98 l -5.6925,9.0625 c -0.36626,0.5775 -0.4875,1.23375 -0.3525,1.825 0.13,0.59125 0.50625,1.10375 1.02875,1.43125 0.52,0.33 1.145,0.4425 1.735,0.305 0.59125,-0.1375 1.13,-0.53 1.49125,-1.10875 l 3.60125,-5.73375 c 0.20125,-0.32 0.105,-0.74125 -0.21375,-0.94125 -0.32,-0.20125 -0.74125,-0.1025 -0.9425,0.2125 l -3.60125,5.735 c -0.2,0.31625 -0.425,0.45375 -0.6475,0.50875 -0.22125,0.0525 -0.45875,0.0162 -0.6975,-0.13125 -0.2375,-0.1525 -0.37125,-0.35 -0.4225,-0.5725 -0.0463,-0.22375 -0.02,-0.4875 0.175,-0.8025 l 5.69375,-9.06125 c 0.515,-0.8225 1.59375,-1.06625 2.4125,-0.55375 0.8175,0.51625 1.06375,1.59625 0.55125,2.415 l -7.40625,11.7925 c -0.47875,0.76 -1.14375,1.24125 -1.825,1.43875 -0.68125,0.19875 -1.365,0.1225 -1.95,-0.245 -0.585,-0.3675 -0.95,-0.94875 -1.07,-1.64875 -0.11625,-0.7 0.0275,-1.50875 0.50625,-2.26875 l 5.3,-8.44 c 0.2025,-0.32125 0.105,-0.7425 -0.21375,-0.9425 -0.31875,-0.2 -0.73875,-0.1025 -0.94125,0.21375 l -5.3,8.44 c -0.645,1.02625 -0.86875,2.17375 -0.69625,3.22125 0.17125,1.04375 0.75625,1.995 1.69,2.58125 0.93,0.58625 2.045,0.6975 3.05875,0.40125 1.01875,-0.29875 1.95375,-1 2.595,-2.0275 l 7.41,-11.79375 c 0.9125,-1.455 0.47375,-3.3775 -0.98125,-4.2925" />
  <path
     inkscape:connector-curvature="0"
     style="fill:#100f0d;fill-opacity:1;fill-rule:nonzero;stroke:none"
     id="path2911"
     d="m 63.74999,301.87625 c -3.73375,0 -6.7575,-3.025 -6.7575,-6.76 0,-3.73375 3.02375,-6.75875 6.7575,-6.75875 3.73125,0 6.75625,3.025 6.75625,6.75875 0,3.735 -3.025,6.76 -6.75625,6.76 z m 18.75,-8.20125 -2.73875,-8.4175 -5.0075,0 c -1.3925,-1.5525 -3.1,-2.8125 -5.03375,-3.67 l -1.5425,-4.75 -8.85625,0 -1.54374,4.75 c -1.93251,0.8575 -3.64126,2.1175 -5.03375,3.67 l -5.00625,0 -2.7375,8.4175 4.03125,2.93 c 0.21375,2.15125 0.9025,4.16 1.93999,5.94 l -1.54499,4.75375 7.16125,5.2025 4.03375,-2.93 c 1.00874,0.2175 2.05375,0.34 3.12875,0.34 1.07374,0 2.11875,-0.1225 3.12749,-0.34 l 4.03375,2.93 7.16125,-5.2025 -1.54499,-4.75375 c 1.03749,-1.78 1.72624,-3.78875 1.94,-5.94 l 4.0325,-2.93" />
  <path
     inkscape:connector-curvature="0"
     style="fill:#100f0d;fill-opacity:1;fill-rule:nonzero;stroke:none"
     id="path2913"
     d="m 274.55375,334.31875 c -0.7975,0 -1.44125,-0.6475 -1.44125,-1.445 0,-0.79625 0.64375,-1.44125 1.44125,-1.44125 0.7975,0 1.4425,0.645 1.4425,1.44125 0,0.7975 -0.645,1.445 -1.4425,1.445 z m -5.4875,9.795 c -2.79499,0 -5.06124,-2.265 -5.06124,-5.0625 0,-2.79375 2.26625,-5.06 5.06124,-5.06 2.79625,0 5.06125,2.26625 5.06125,5.06 0,2.7975 -2.265,5.0625 -5.06125,5.0625 z m 1.24,7.4975 c 0,0.685 -0.55375,1.2425 -1.24,1.2425 -0.68375,0 -1.24,-0.5575 -1.24,-1.2425 l 0,-4.34375 c 0,-0.68625 0.55625,-1.24 1.24,-1.24 0.68625,0 1.24,0.55375 1.24,1.24 l 0,4.34375 z M 254.305,329.1475 l 0,-4.1875 c 0,-0.3025 0.2475,-0.54625 0.5475,-0.54625 l 15.25375,0 c 0.3025,0 0.54875,0.24375 0.54875,0.54625 l 0,4.1875 c 0,0.3025 -0.24625,0.54875 -0.54875,0.54875 l -15.25375,0 c -0.29999,0 -0.5475,-0.24625 -0.5475,-0.54875 z m -1.48875,-6.29125 0,32.5 32.5,0 0,-32.5 -32.5,0" />
  <path
     inkscape:connector-curvature="0"
     style="fill:#100f0d;fill-opacity:1;fill-rule:nonzero;stroke:none"
     id="path2915"
     d="m 255.33375,328.195 14.291,0 0,-0.52881 -14.291,0 0,0.52881 z" />
  <path
     inkscape:connector-curvature="0"
     style="fill:#100f0d;fill-opacity:1;fill-rule:nonzero;stroke:none"
     id="path2917"
     d="m 255.33375,326.4425 14.291,0 0,-0.52636 -14.291,0 0,0.52636 z" />
  <path
     inkscape:connector-curvature="0"
     style="fill:#100f0d;fill-opacity:1;fill-rule:nonzero;stroke:none"
     id="path2919"
     d="m 202.57875,193.3125 c 0,-4.17125 -1.94,-7.55 -5.39,-7.55 -3.4475,0 -5.38875,3.37875 -5.38875,7.55 0,4.58 1.875,5.82 2.415,6.64625 0.54,0.82625 1.29875,1.1275 1.29875,4.1 l -0.25376,17.0875 c 0,1.06625 0.86375,1.93125 1.92875,1.93125 1.06376,0 1.93,-0.865 1.93,-1.93125 l -0.22375,-17.0875 c 0,-2.9725 0.83625,-3.3425 1.27125,-4.1 0.43375,-0.7575 2.41251,-2.06625 2.41251,-6.64625" />
  <path
     inkscape:connector-curvature="0"
     style="fill:#100f0d;fill-opacity:1;fill-rule:nonzero;stroke:none"
     id="path2921"
     d="m 184.71875,186.22875 0,8.3925 c 0,0.45375 -0.36751,0.82125 -0.8225,0.82125 -0.45376,0 -0.82126,-0.3675 -0.82126,-0.82125 l 0,-8.3925 -2.02999,0 0,8.3925 c 0,0.45375 -0.36875,0.82125 -0.82126,0.82125 -0.45625,0 -0.82375,-0.3675 -0.82375,-0.82125 l 0,-8.3925 -1.84625,0 -0.50875,10.13625 c 0,1.98125 0.445,3.655 1.92125,4.25 l -0.0112,0.007 c 0,0 1.43125,0.46375 1.43125,3.43625 l -0.265,17.0875 c 0,1.06625 0.865,1.93125 1.92875,1.93125 1.0675,0 1.93125,-0.865 1.93125,-1.93125 l -0.24625,-17.0875 c 0,-2.9725 1.41125,-3.43625 1.41125,-3.43625 l -0.009,-0.007 c 1.4725,-0.595 1.91875,-2.26875 1.91875,-4.25 l -0.41,-10.13625 -1.9275,0" />
  <path
     inkscape:connector-curvature="0"
     style="fill:#100f0d;fill-opacity:1;fill-rule:nonzero;stroke:none"
     id="path2923"
     d="m 142.14375,219.03375 c -2.46625,0 -3.85,-2.4125 -3.85,-5.3925 0,-3.27125 1.41375,-4.205 1.72375,-4.7475 0.31,-0.54 0.90625,-0.805 0.90625,-2.92625 l -0.16,-12.205 c 0,-0.7625 0.6175,-1.38 1.38,-1.38 0.75875,0 1.3775,0.6175 1.3775,1.38 l -0.18125,12.205 c 0,2.12125 0.54125,2.33875 0.92625,2.92625 0.3875,0.59125 1.72625,1.47625 1.72625,4.7475 0,2.98 -1.38625,5.3925 -3.84875,5.3925 z m -4.84874,-16.0375 c 0,0 -1.01,0.33125 -1.01,2.455 l 0.1775,12.20375 c 0,0.76375 -0.6175,1.37875 -1.38,1.37875 -0.76,0 -1.37626,-0.615 -1.37626,-1.37875 l 0.18876,-12.20375 c 0,-2.12375 -1.02125,-2.455 -1.02125,-2.455 l 0.007,-0.005 c -1.05375,-0.425 -1.3725,-1.62 -1.3725,-3.03625 l 0.36374,-7.24 1.3175,0 0,5.995 c 0,0.32375 0.26375,0.5875 0.58875,0.5875 0.32376,0 0.58625,-0.26375 0.58625,-0.5875 l 0,-5.995 1.44876,0 0,5.995 c 0,0.32375 0.26375,0.5875 0.58749,0.5875 0.325,0 0.58875,-0.26375 0.58875,-0.5875 l 0,-5.995 1.37626,0 0.29375,7.24 c 0,1.41625 -0.32,2.61125 -1.37125,3.03625 l 0.006,0.005 z M 138.75,186.06 c -10.355,0 -18.75,8.39375 -18.75,18.75 0,10.35375 8.395,18.75 18.75,18.75 10.35501,0 18.75,-8.39625 18.75,-18.75 0,-10.35625 -8.39499,-18.75 -18.75,-18.75" />
  <path
     inkscape:connector-curvature="0"
     style="fill:#100f0d;fill-opacity:1;fill-rule:nonzero;stroke:none"
     id="path2925"
     d="m 75.21499,118.19625 c 0,0.46875 -0.3825,0.85125 -0.85125,0.85125 l -21.23125,0 c -0.4675,0 -0.84875,-0.3825 -0.84875,-0.85125 l 0,-13.58875 c 0,-0.465 0.38125,-0.8475 0.84875,-0.8475 l 21.23125,0 c 0.46875,0 0.85125,0.3825 0.85125,0.8475 l 0,13.58875 z m 3.395,-18.68375 -29.7225,0 c -0.46875,0 -0.85,0.3825 -0.85,0.84875 l 0,22.08125 c 0,0.4675 0.38125,0.85 0.85,0.85 l 9.92376,0 0,2.97375 -7.06001,0 c -0.46625,0 -0.84999,0.3825 -0.84999,0.85 l 0,2.4725 c 0,0.46625 0.38374,0.85 0.84999,0.85 l 23.99626,0 c 0.46625,0 0.84749,-0.38375 0.84749,-0.85 l 0,-2.4725 c 0,-0.4675 -0.38124,-0.85 -0.84749,-0.85 l -7.06,0 0,-2.97375 9.92249,0 c 0.4675,0 0.85125,-0.3825 0.85125,-0.85 l 0,-22.08125 c 0,-0.46625 -0.38375,-0.84875 -0.85125,-0.84875" />
  <path
     inkscape:connector-curvature="0"
     style="fill:#100f0d;fill-opacity:1;fill-rule:nonzero;stroke:none"
     id="path2927"
     d="m 28.6085,118.56375 c 0,0.295 -0.23925,0.53375 -0.53225,0.53375 l -6.228,0 0,1.86625 4.43112,0 c 0.293,0 0.53225,0.24 0.53225,0.53375 l 0,1.55125 c 0,0.29375 -0.23925,0.53375 -0.53225,0.53375 l -15.05862,0 c -0.293,0 -0.53463,-0.24 -0.53463,-0.53375 l 0,-1.55125 c 0,-0.29375 0.24163,-0.53375 0.53463,-0.53375 l 4.43112,0 0,-1.86625 -6.228,0 c -0.29537,0 -0.53462,-0.23875 -0.53462,-0.53375 l 0,-13.85625 c 0,-0.2925 0.23925,-0.5325 0.53462,-0.5325 l 18.65238,0 c 0.293,0 0.53225,0.24 0.53225,0.5325 l 0,13.85625 z m -9.8585,-23.59 c -10.354,0 -18.75,8.39375 -18.75,18.75 0,10.35375 8.396,18.75 18.75,18.75 10.3565,0 18.75,-8.39625 18.75,-18.75 0,-10.35625 -8.3935,-18.75 -18.75,-18.75" />
  <path
     inkscape:connector-curvature="0"
     style="fill:#100f0d;fill-opacity:1;fill-rule:nonzero;stroke:none"
     id="path2929"
     d="m 25.41025,106.84 -13.32275,0 c -0.293,0 -0.53225,0.24 -0.53225,0.5325 l 0,8.52625 c 0,0.295 0.23925,0.535 0.53225,0.535 l 13.32275,0 c 0.29287,0 0.53462,-0.24 0.53462,-0.535 l 0,-8.52625 c 0,-0.2925 -0.24175,-0.5325 -0.53462,-0.5325" />
  <path
     inkscape:connector-curvature="0"
     style="fill:#100f0d;fill-opacity:1;fill-rule:nonzero;stroke:none"
     id="path2931"
     d="m 134.52125,247.0225 c -0.71749,0 -1.2975,0.58 -1.2975,1.2975 0,0.71875 0.58,1.29875 1.2975,1.29875 0.7175,0 1.29875,-0.58 1.29875,-1.29875 0,-0.7175 -0.58125,-1.2975 -1.29875,-1.2975" />
  <path
     inkscape:connector-curvature="0"
     style="fill:#100f0d;fill-opacity:1;fill-rule:nonzero;stroke:none"
     id="path2933"
     d="m 143.97501,243.1225 -10.44876,0 0,-1.22625 c 0.0587,-4.39375 2.44626,-6.68125 5.22501,-6.6975 2.77375,0.0162 5.16,2.30375 5.22375,6.6975 l 0,1.22625 z m -9.005,15.80625 -3.7375,-9.0025 2.30124,-4.07375 4.51126,1.2475 3.7375,9 -6.8125,2.82875 z m 11.62625,-15.80625 0,-1.22625 c 0,-2.705 -0.81125,-5.02875 -2.22625,-6.69125 -1.4075,-1.66625 -3.43375,-2.64 -5.61875,-2.63125 -2.18875,-0.009 -4.2175,0.965 -5.62375,2.63125 -1.415,1.6625 -2.2275,3.98625 -2.2275,6.69125 l 0,1.22625 -5.1625,0 0,26.95125 26.025,0 0,-26.95125 -5.16625,0" />
  <path
     inkscape:connector-curvature="0"
     style="fill:#100f0d;fill-opacity:1;fill-rule:nonzero;stroke:none"
     id="path2935"
     d="m 101.62875,160.8025 -5.1325,3.13625 0.77251,-3.85875 c -1.71625,-0.2575 -3.52375,-1.47625 -3.52375,-3.41875 0,-2.03375 2.52249,-3.68375 5.6325,-3.68375 3.11,0 5.635,1.65 5.635,3.68375 0,1.945 -1.77001,3.23625 -3.38376,4.14125 z m -2.25124,-13.03375 c -5.17626,0 -9.375,4.19625 -9.375,9.375 0,5.1775 4.19874,9.375 9.375,9.375 5.17874,0 9.375,-4.1975 9.375,-9.375 0,-5.17875 -4.19626,-9.375 -9.375,-9.375" />
  <path
     inkscape:connector-curvature="0"
     style="fill:#100f0d;fill-opacity:1;fill-rule:nonzero;stroke:none"
     id="path2937"
     d="m 66.08749,221.44625 15.49375,-24.81875 -12.2375,-7.71375 c -1.0425,-0.24625 -2.16625,0.165 -2.76875,1.12125 l -8.3575,13.30625 c -0.28875,0.4625 -0.32875,0.85 -0.2575,1.17875 0.0737,0.32625 0.2725,0.61875 0.62125,0.83875 0.35,0.21875 0.6975,0.26875 1.02375,0.195 0.32375,-0.08 0.6575,-0.285 0.95,-0.745 l 5.28625,-8.42 c 0.295,-0.46875 0.91375,-0.61 1.38375,-0.315 0.4675,0.2925 0.60875,0.91 0.31375,1.38 l -5.28875,8.42 c -0.53,0.85 -1.31875,1.43 -2.1875,1.62625 -0.8675,0.2075 -1.785,0.0362 -2.54625,-0.44625 -0.7675,-0.4775 -1.32125,-1.23125 -1.5125,-2.09875 -0.19624,-0.87 -0.0187,-1.8325 0.51751,-2.6825 L 64.88,188.96625 C 65.35625,188.21 66.02125,187.65 66.7725,187.29 l -5.30875,-3.34375 -15.54625,24.9 20.17,12.6" />
  <path
     inkscape:connector-curvature="0"
     style="fill:#100f0d;fill-opacity:1;fill-rule:nonzero;stroke:none"
     id="path2939"
     d="m 220,75.65 4.24375,-1.1375 -3.08999,-3.08875 L 220,75.65" />
  <path
     inkscape:connector-curvature="0"
     style="fill:#100f0d;fill-opacity:1;fill-rule:nonzero;stroke:none"
     id="path2941"
     d="m 222.35375,70.2375 3.09,3.09 6.695,-6.695 -3.08875,-3.09125 -6.69625,6.69625" />
  <path
     inkscape:connector-curvature="0"
     style="fill:#100f0d;fill-opacity:1;fill-rule:nonzero;stroke:none"
     id="path2943"
     d="m 234.81375,62.95375 -2.10125,-2.1 c -0.27375,-0.2725 -0.7175,-0.2725 -0.99124,0 l -1.35751,1.36125 3.09,3.0875 1.36,-1.35875 c 0.27125,-0.27125 0.27125,-0.7175 0,-0.99" />
  <path
     inkscape:connector-curvature="0"
     style="fill:#100f0d;fill-opacity:1;fill-rule:nonzero;stroke:none"
     id="path2945"
     d="m 329.71375,121.5525 c -3.5225,0 -6.37625,-2.85375 -6.37625,-6.37625 0,-3.52125 2.85375,-6.3775 6.37625,-6.3775 3.52125,0 6.3775,2.85625 6.3775,6.3775 0,3.5225 -2.85625,6.37625 -6.3775,6.37625 z m 0,-15.75125 c -5.1775,0 -9.375,4.19625 -9.375,9.375 0,5.1775 4.1975,9.375 9.375,9.375 5.17625,0 9.375,-4.1975 9.375,-9.375 0,-5.17875 -4.19875,-9.375 -9.375,-9.375" />
  <path
     inkscape:connector-curvature="0"
     style="fill:#100f0d;fill-opacity:1;fill-rule:nonzero;stroke:none"
     id="path2947"
     d="m 329.72375,110.59375 c -0.0538,-0.2525 -0.17125,-0.38125 -0.38125,-0.38125 -0.21,0 -0.32625,0.12875 -0.38,0.38125 -0.0562,0.2575 -0.8275,3.9625 -0.98125,4.705 -0.135,0.65 0.185,1.27 0.74125,1.53875 0.27125,0.1325 0.58875,0.18 0.91625,0.1125 0.7425,-0.155 4.4475,-0.92625 4.70375,-0.98 0.2525,-0.0525 0.38125,-0.17125 0.38125,-0.3825 0,-0.20875 -0.12875,-0.3275 -0.38125,-0.38125 -0.2,-0.0425 -2.465,-0.51375 -3.8225,-0.795 -0.28375,-1.35875 -0.755,-3.61875 -0.79625,-3.8175" />
  <path
     inkscape:connector-curvature="0"
     style="fill:#100f0d;fill-opacity:1;fill-rule:nonzero;stroke:none"
     id="path2949"
     d="m 283.76125,148.0675 -6.01375,19.97625 -21.07375,-6.345 5.89,-19.56375 c -5.3175,1.97375 -9.6875,6.30875 -11.45,12.15875 -2.985,9.915 2.6325,20.375 12.54875,23.35875 9.915,2.9875 20.37375,-2.6325 23.36,-12.54625 1.835,-6.09875 0.40875,-12.395 -3.26125,-17.03875" />
  <path
     inkscape:connector-curvature="0"
     style="fill:#100f0d;fill-opacity:1;fill-rule:nonzero;stroke:none"
     id="path2951"
     d="m 280.85375,146.9425 -15.12,-4.55375 -0.83625,2.77625 15.12,4.5525 0.83625,-2.775" />
  <path
     inkscape:connector-curvature="0"
     style="fill:#100f0d;fill-opacity:1;fill-rule:nonzero;stroke:none"
     id="path2953"
     d="m 279.04125,152.9625 -15.12,-4.55125 -0.835,2.775 15.11875,4.5525 0.83625,-2.77625" />
  <path
     inkscape:connector-curvature="0"
     style="fill:#100f0d;fill-opacity:1;fill-rule:nonzero;stroke:none"
     id="path2955"
     d="m 261.2725,157.20625 15.12,4.5525 0.835,-2.775 -15.11874,-4.5525 -0.83625,2.775" />
  <path
     inkscape:connector-curvature="0"
     style="fill:#100f0d;fill-opacity:1;fill-rule:nonzero;stroke:none"
     id="path2957"
     d="m 269.06375,71.2 c -2.1725,0 -3.935,-1.7625 -3.935,-3.935 0,-2.17375 1.76251,-3.93375 3.935,-3.93375 2.17375,0 3.93375,1.76 3.93375,3.93375 0,2.1725 -1.76,3.935 -3.93375,3.935 z m 0,-12.8075 c -4.9,0 -8.875,3.9725 -8.875,8.8725 0,4.89875 3.975,8.87375 8.875,8.87375 4.9,0 8.8725,-3.975 8.8725,-8.87375 0,-4.9 -3.9725,-8.8725 -8.8725,-8.8725" />
  <path
     inkscape:connector-curvature="0"
     style="fill:#100f0d;fill-opacity:1;fill-rule:nonzero;stroke:none"
     id="path2959"
     d="m 269.06375,80.01875 c -7.0425,0 -12.75375,-5.71125 -12.75375,-12.75375 0,-7.04375 5.71125,-12.755 12.75375,-12.755 7.04375,0 12.75375,5.71125 12.75375,12.755 0,7.0425 -5.71,12.75375 -12.75375,12.75375 z m 0,-31.50375 c -10.35625,0 -18.75,8.3925 -18.75,18.75 0,10.35375 8.39375,18.75 18.75,18.75 10.355,0 18.75,-8.39625 18.75,-18.75 0,-10.3575 -8.395,-18.75 -18.75,-18.75" />
  <path
     inkscape:connector-curvature="0"
     style="fill:#100f0d;fill-opacity:1;fill-rule:nonzero;stroke:none"
     id="path2961"
     d="m 271.39625,207.065 c -4.02875,2.4275 -9.25625,1.1375 -11.6825,-2.8875 -2.43,-4.02375 -1.1325,-9.24875 2.88625,-11.675 4.0275,-2.43375 9.25625,-1.1425 11.68125,2.8875 2.42875,4.02 1.135,9.25 -2.885,11.675 z m 10.75625,11.31125 -5.37625,-8.99 c 4.2825,-4.3625 5.26875,-11.21625 1.965,-16.69125 -3.9125,-6.48625 -12.34375,-8.57625 -18.83625,-4.66375 -6.48374,3.91375 -8.57,12.35125 -4.65499,18.835 3.30375,5.4825 9.82375,7.80625 15.67875,6.04625 l 5.375,8.99125 c 0.97625,1.62 3.08,2.1375 4.6875,1.165 1.6125,-0.97 2.1375,-3.075 1.16125,-4.6925" />
  <path
     inkscape:connector-curvature="0"
     style="fill:#100f0d;fill-opacity:1;fill-rule:nonzero;stroke:none"
     id="path2963"
     d="m 282.32125,32.01125 c 7.32376,-7.3225 7.32376,-19.1975 0,-26.51875 -7.3225,-7.3225 -19.195,-7.32 -26.51874,0 -7.275,7.2725 -7.31501,19.02875 -0.14125,26.3625 l 4.21375,-8.93625 c -1.685,-3.72 -1.01125,-8.24875 2.04499,-11.3075 3.94625,-3.94375 10.3375,-3.94375 14.28251,0 3.94124,3.9425 3.94124,10.33625 0,14.27875 -3.06125,3.06 -7.59001,3.73375 -11.31125,2.04625 l -8.9325,4.21375 c 7.33375,7.1725 19.09124,7.13375 26.36249,-0.13875" />
  <path
     inkscape:connector-curvature="0"
     style="fill:#100f0d;fill-opacity:1;fill-rule:nonzero;stroke:none"
     id="path2965"
     d="m 269.06375,127.53375 c -7.0425,0 -12.75375,-5.71 -12.75375,-12.75375 0,-7.04375 5.71125,-12.75375 12.75375,-12.75375 7.04375,0 12.75375,5.71 12.75375,12.75375 0,7.04375 -5.71,12.75375 -12.75375,12.75375 z m 0,-31.50375 c -10.35625,0 -18.75,8.39375 -18.75,18.75 0,10.35375 8.39375,18.75 18.75,18.75 10.355,0 18.75,-8.39625 18.75,-18.75 0,-10.35625 -8.395,-18.75 -18.75,-18.75" />
  <path
     inkscape:connector-curvature="0"
     style="fill:#100f0d;fill-opacity:1;fill-rule:nonzero;stroke:none"
     id="path2967"
     d="m 269.0225,105.13 c -0.1075,-0.5125 -0.34625,-0.775 -0.77375,-0.775 -0.42999,0 -0.66875,0.2625 -0.77625,0.775 -0.11249,0.5225 -1.67999,8.06 -1.995,9.56875 -0.27374,1.32375 0.37875,2.58375 1.50875,3.1275 0.55,0.2725 1.19625,0.3675 1.86,0.23 1.51,-0.3125 9.04625,-1.8825 9.56875,-1.99375 0.51251,-0.10875 0.77625,-0.34625 0.77625,-0.775 0,-0.42625 -0.26374,-0.66625 -0.77625,-0.775 -0.40499,-0.0862 -5.015,-1.04625 -7.77374,-1.62125 -0.57625,-2.76125 -1.53376,-7.3575 -1.61875,-7.76125" />
  <path
     inkscape:connector-curvature="0"
     style="fill:#100f0d;fill-opacity:1;fill-rule:nonzero;stroke:none"
     id="path2969"
     d="m 280.00125,260.35375 -9.07625,3.1475 c -0.50625,0.17125 -1.15,0.44625 -1.86125,0.44375 -0.715,0.002 -1.30125,-0.25375 -1.8625,-0.44375 l -9.0725,-3.145 0,-18.09875 21.8725,0 0,18.09625 z m -10.9375,-27.78 c -10.35375,0 -18.75,8.3925 -18.75,18.75 0,10.35375 8.39625,18.75 18.75,18.75 10.35625,0 18.75,-8.39625 18.75,-18.75 0,-10.3575 -8.39375,-18.75 -18.75,-18.75" />
  <path
     inkscape:connector-curvature="0"
     style="fill:#100f0d;fill-opacity:1;fill-rule:nonzero;stroke:none"
     id="path2971"
     d="m 266.38375,247.26875 5.41504,0 0,-1.21777 -5.41504,0 0,1.21777 z" />
  <path
     inkscape:connector-curvature="0"
     style="fill:#100f0d;fill-opacity:1;fill-rule:nonzero;stroke:none"
     id="path2973"
     d="m 273.6,247.26875 5.41504,0 0,-1.21777 -5.41504,0 0,1.21777 z" />
  <path
     inkscape:connector-curvature="0"
     style="fill:#100f0d;fill-opacity:1;fill-rule:nonzero;stroke:none"
     id="path2975"
     d="m 259.115,247.26875 5.41504,0 0,-1.21777 -5.41504,0 0,1.21777 z" />
  <path
     inkscape:connector-curvature="0"
     style="fill:#100f0d;fill-opacity:1;fill-rule:nonzero;stroke:none"
     id="path2977"
     d="m 278.51501,303.53625 c -1.95376,-0.2075 -3.3675,-1.95625 -3.15876,-3.90875 0.205,-1.95375 1.955,-3.36875 3.9075,-3.16125 1.95375,0.205 3.37,1.955 3.16251,3.90875 -0.20501,1.9525 -1.95876,3.36875 -3.91125,3.16125 z m -5.12751,-8.9825 c -2.51875,-0.2675 -4.345,-2.52375 -4.08125,-5.04625 0.26875,-2.51875 2.52626,-4.345 5.04625,-4.07875 2.52125,0.265 4.3475,2.52375 4.07875,5.04625 -0.26499,2.51875 -2.52374,4.345 -5.04375,4.07875 z m -0.1925,9.14375 c -0.44625,4.21875 -4.22875,7.28 -8.45,6.83375 -4.22125,-0.4475 -7.28,-4.23125 -6.83375,-8.45 0.4475,-4.22375 4.22875,-7.28 8.45,-6.83625 4.22126,0.4475 7.28,4.22875 6.83375,8.4525 z m -9.30125,-15.825 c 1.425,0 2.58001,1.15375 2.58001,2.58 0,1.42625 -1.155,2.58375 -2.58001,2.58375 -1.42625,0 -2.58375,-1.1575 -2.58375,-2.58375 0,-1.42625 1.1575,-2.58 2.58375,-2.58 z m 5.17,-8.785 c -10.355,0 -18.75,8.39625 -18.75,18.75 0,10.35625 8.395,18.75 18.75,18.75 10.355,0 18.75,-8.39375 18.75,-18.75 0,-10.35375 -8.395,-18.75 -18.75,-18.75" />
  <path
     inkscape:connector-curvature="0"
     style="fill:#100f0d;fill-opacity:1;fill-rule:nonzero;stroke:none"
     id="path2979"
     d="m 189.81125,24.3575 c -1.6525,-0.007 -3.31625,-0.42 -4.71625,-1.37625 l -10.9725,-7.60625 0,14.95375 31.38,0 0,-14.95375 -10.98001,7.60625 c -1.40375,0.95625 -3.065,1.3725 -4.71125,1.37625" />
  <path
     inkscape:connector-curvature="0"
     style="fill:#100f0d;fill-opacity:1;fill-rule:nonzero;stroke:none"
     id="path2981"
     d="m 174.1225,12.265 13.01749,9.01875 c 0.6325,0.44875 1.64376,0.7425 2.67125,0.73875 1.02,0.004 2.03,-0.29 2.66875,-0.73875 l 13.0225,-9.02125 0,-3.10375 -31.38,0 0,3.10625" />
  <path
     inkscape:connector-curvature="0"
     style="fill:#100f0d;fill-opacity:1;fill-rule:nonzero;stroke:none"
     id="path2983"
     d="m 144.06126,171.1675 -7.72375,-6.34125 -5.15751,0 0,-9.06125 5.16251,0 7.7225,-6.34125 -0.004,21.74375 z m -5.31125,-29.6225 c -10.355,0 -18.75,8.395 -18.75,18.75 0,10.355 8.395,18.75 18.75,18.75 10.355,0 18.75,-8.395 18.75,-18.75 0,-10.355 -8.395,-18.75 -18.75,-18.75" />
  <path
     inkscape:connector-curvature="0"
     style="fill:#100f0d;fill-opacity:1;fill-rule:nonzero;stroke:none"
     id="path2985"
     d="m 203.75125,340.69125 -8.1575,0 0,7.66125 -5.92001,0 0,-7.66125 -8.15625,0 0,-5.92 8.15625,0 0,-8.1575 5.92001,0 0,8.1575 8.1575,0 0,5.92 z m -5.28125,-8.68875 0,-8.2525 -11.71375,0 0,8.2525 -13.825,0 0,25.53625 25.53875,0 0,-13.825 8.22375,0 0,-11.71125 -8.22375,0" />
  <path
     inkscape:connector-curvature="0"
     style="fill:#100f0d;fill-opacity:1;fill-rule:nonzero;stroke:none"
     id="path2987"
     d="m 150.555,343.85 -5.5025,0 0,9.25375 -15.02875,0 -2.065,-2.06625 0,-15.02625 9.25376,0 0,-5.5225 7.83999,0 0,5.5225 5.5025,0 0,7.83875 z M 138.75,323.60375 c -10.355,0 -18.75,8.39375 -18.75,18.75 0,10.35375 8.395,18.75 18.75,18.75 10.35501,0 18.75,-8.39625 18.75,-18.75 0,-10.35625 -8.39499,-18.75 -18.75,-18.75" />
  <path
     inkscape:connector-curvature="0"
     style="fill:#100f0d;fill-opacity:1;fill-rule:nonzero;stroke:none"
     id="path2989"
     d="m 143.45875,332.075 -4.625,0 0,5.46 -5.45875,0 0,4.62375 5.45875,0 0,5.45875 4.625,0 0,-5.45875 5.45876,0 0,-4.62375 -5.45876,0 0,-5.46" />
  <path
     inkscape:connector-curvature="0"
     style="fill:#100f0d;fill-opacity:1;fill-rule:nonzero;stroke:none"
     id="path2991"
     d="m 222.64125,379.38 c -0.3225,0.0437 -0.5475,0.33625 -0.505,0.65875 l 2.16625,16.07625 1.1625,-0.15625 -2.16624,-16.07625 c -0.0438,-0.32 -0.33876,-0.54625 -0.65751,-0.5025" />
  <path
     inkscape:connector-curvature="0"
     style="fill:#100f0d;fill-opacity:1;fill-rule:nonzero;stroke:none"
     id="path2993"
     d="m 230.2025,384.565 c 0.755,-1.465 1.12,-2.295 1.77876,-4.46 -2.68625,1.9725 -5.27376,0.505 -7.90376,0.48375 l 0.89876,6.67125 c 2.62749,0.0225 5.21875,1.49 7.90374,-0.4825 -1.01874,-0.50375 -1.56375,-1.00625 -2.6775,-2.2125" />
  <path
     inkscape:connector-curvature="0"
     style="fill:#100f0d;fill-opacity:1;fill-rule:nonzero;stroke:none"
     id="path2995"
     d="m 198.22874,281.5125 c -0.60374,0 -1.10124,0.4925 -1.10124,1.10125 l 0,28.35125 c 0,0.60625 0.4975,1.10125 1.10124,1.10125 l 5.50626,0 c 0.605,0 1.1,-0.495 1.1,-1.10125 l 0,-28.35125 c 0,-0.60875 -0.495,-1.10125 -1.1,-1.10125 l -5.50626,0 z m -23.43875,29.4525 c 0,0.60625 0.495,1.10125 1.1,1.10125 l 5.50626,0 c 0.60375,0 1.10125,-0.495 1.10125,-1.10125 l 0,-11.61125 c 0,-0.6075 -0.4975,-1.10125 -1.10125,-1.10125 l -5.50626,0 c -0.605,0 -1.1,0.49375 -1.1,1.10125 l 0,11.61125 z m 11.16875,-19.8175 c 0,-0.605 0.495,-1.1 1.10125,-1.1 l 5.50375,0 c 0.60625,0 1.10125,0.495 1.10125,1.1 l 0,19.8175 c 0,0.60625 -0.495,1.10125 -1.10125,1.10125 l -5.50375,0 c -0.60625,0 -1.10125,-0.495 -1.10125,-1.10125 l 0,-19.8175" />
  <path
     inkscape:connector-curvature="0"
     style="fill:#100f0d;fill-opacity:1;fill-rule:nonzero;stroke:none"
     id="path2997"
     d="m 148.59501,307.03 c 0,0.4175 -0.34125,0.76125 -0.76126,0.76125 l -3.80624,0 c -0.41751,0 -0.7625,-0.34375 -0.7625,-0.76125 l 0,-19.6125 c 0,-0.4175 0.345,-0.75875 0.7625,-0.75875 l 3.80624,0 c 0.42001,0 0.76126,0.34125 0.76126,0.75875 l 0,19.6125 z m -7.72375,0 c 0,0.4175 -0.3425,0.76125 -0.76375,0.76125 l -3.80625,0 c -0.41875,0 -0.76125,-0.34375 -0.76125,-0.76125 l 0,-13.70875 c 0,-0.4175 0.34249,-0.75875 0.76125,-0.75875 l 3.80625,0 c 0.42124,0 0.76375,0.34125 0.76375,0.75875 l 0,13.70875 z m -7.72625,0 c 0,0.4175 -0.3425,0.76125 -0.76,0.76125 l -3.81,0 c -0.4175,0 -0.76125,-0.34375 -0.76125,-0.76125 l 0,-8.0325 c 0,-0.4175 0.34375,-0.76125 0.76125,-0.76125 l 3.81,0 c 0.4175,0 0.76,0.34375 0.76,0.76125 l 0,8.0325 z m 5.605,-27.9425 c -10.35375,0 -18.75,8.39625 -18.75,18.75 0,10.35625 8.39625,18.75 18.75,18.75 10.35625,0 18.75,-8.39375 18.75,-18.75 0,-10.35375 -8.39375,-18.75 -18.75,-18.75" />
  <path
     inkscape:connector-curvature="0"
     style="fill:#100f0d;fill-opacity:1;fill-rule:nonzero;stroke:none"
     id="path2999"
     d="m 195.47874,381.06375 c 1.60125,-3.11 2.4625,-4.0175 3.86125,-8.6175 -5.70625,4.18875 -11.20125,1.07125 -16.785,1.025 l 1.74,12.9075 c 5.58125,0.0462 11.08125,3.165 16.78625,-1.025 -2.165,-1.06875 -3.23875,-1.72875 -5.6025,-4.29" />
  <path
     inkscape:connector-curvature="0"
     style="fill:#100f0d;fill-opacity:1;fill-rule:nonzero;stroke:none"
     id="path3001"
     d="m 179.59375,370.9525 c -0.66501,0.09 -1.1275,0.6925 -1.04001,1.35625 l 4.41375,32.75875 2.44,0 -4.45875,-33.08 c -0.09,-0.66 -0.69625,-1.12875 -1.355,-1.035" />
  <path
     inkscape:connector-curvature="0"
     style="fill:#100f0d;fill-opacity:1;fill-rule:nonzero;stroke:none"
     id="path3003"
     d="m 136.92126,391.72875 -1.54625,-11.475 c 4.965,0.0412 9.85,2.81 14.92375,-0.91375 -1.24375,4.09 -2.01,4.8975 -3.43375,7.66375 2.10125,2.27875 3.05625,2.86125 4.98125,3.81125 -5.07125,3.72625 -9.9625,0.955 -14.925,0.91375 z m 1.82875,-22.61 c -10.355,0 -18.75,8.39375 -18.75,18.75 0,9.2325 6.68,16.88875 15.46875,18.445 l -3.65,-27.0925 c -0.0788,-0.59125 0.3325,-1.12875 0.92375,-1.20875 0.58625,-0.08 1.125,0.335 1.205,0.92 l 3.72375,27.63 c 0.35875,0.0212 0.715,0.0562 1.07875,0.0562 10.355,0 18.75,-8.39625 18.75,-18.75 0,-10.35625 -8.395,-18.75 -18.75,-18.75" />
  <path
     inkscape:connector-curvature="0"
     style="fill:#100f0d;fill-opacity:1;fill-rule:nonzero;stroke:none"
     id="path3183"
     d="m 194.80624,422.255 c 3.7775,-2.485 8.85625,-1.4375 11.34375,2.34125 2.48625,3.7775 1.44,8.855 -2.33875,11.345 -1.5425,1.015 -3.29875,1.42875 -5.01125,1.3225 L 191.60624,426.335 c 0.58125,-1.61375 1.6575,-3.06375 3.2,-4.08" />
  <path
     inkscape:connector-curvature="0"
     style="fill:#100f0d;fill-opacity:1;fill-rule:nonzero;stroke:none"
     id="path3185"
     d="m 189.26249,428.485 6.64126,10.0925 L 173.2225,449.65625 170,444.84875 189.26249,428.485" />
  <path
     inkscape:connector-curvature="0"
     style="fill:#100f0d;fill-opacity:1;fill-rule:nonzero;stroke:none"
     id="path3187"
     d="m 65.26374,376.525 c -6.4125,0.87375 -11.03375,6.415 -10.915,12.72875 -0.45124,-0.975 -0.77,-2.03375 -0.92124,-3.15625 -0.82375,-6.0425 3.40875,-11.60875 9.45374,-12.435 4.18001,-0.5675 8.13,1.285 10.445,4.47875 -2.3525,-1.375 -5.1575,-2.0125 -8.0625,-1.61625 z m 17.93125,8.18875 -4.485,-4.63625 0.90375,-6.385 -6.3525,-1.115 -3.0225,-5.69625 -5.79375,2.83125 -5.79499,-2.83125 -3.02251,5.69625 -6.35249,1.115 0.90375,6.385 -4.48375,4.63625 4.48375,4.63375 -0.90375,6.3875 6.35249,1.1125 3.02251,5.69875 5.79499,-2.8325 5.79375,2.8325 3.0225,-5.69875 6.3525,-1.1125 -0.90375,-6.3875 4.485,-4.63375" />
  <path
     inkscape:connector-curvature="0"
     style="fill:#100f0d;fill-opacity:1;fill-rule:nonzero;stroke:none"
     id="path3189"
     d="m 29.63387,392.62 -4.55812,0.7975 -2.1685,4.09 -4.15725,-2.03 -4.15763,2.03 -2.16899,-4.09 -4.55813,-0.7975 0.6475,-4.58375 -3.21725,-3.32375 3.21725,-3.32625 -0.6475,-4.58375 4.55813,-0.7975 2.169,-4.08875 4.15762,2.0325 4.15725,-2.0325 2.1685,4.08875 4.55812,0.7975 -0.64749,4.58375 3.21825,3.32625 -3.21825,3.32375 0.64749,4.58375 z M 18.75,365.9625 c -10.35487,0 -18.75,8.395 -18.75,18.75 0,10.355 8.39513,18.75 18.75,18.75 10.3555,0 18.75,-8.395 18.75,-18.75 0,-10.355 -8.3945,-18.75 -18.75,-18.75" />
  <path
     inkscape:connector-curvature="0"
     style="fill:#100f0d;fill-opacity:1;fill-rule:nonzero;stroke:none"
     id="path3191"
     d="m 17.6285,376.78375 c -4.33788,0.59125 -7.3755,4.58625 -6.78475,8.92125 0.10937,0.80625 0.338,1.56375 0.66163,2.26625 -0.0849,-4.53125 3.2305,-8.50875 7.83062,-9.135 2.08637,-0.28375 4.09912,0.17375 5.78712,1.16 C 23.4615,377.705 20.627,376.375 17.6285,376.78375" />
  <path
     inkscape:connector-curvature="0"
     style="fill:#100f0d;fill-opacity:1;fill-rule:nonzero;stroke:none"
     id="path3193"
     d="m 140.47626,428.45625 c 0.3725,-1.0325 1.06125,-1.96125 2.05,-2.6125 2.41875,-1.5925 5.67125,-0.92 7.26375,1.50125 1.59125,2.4175 0.9225,5.66875 -1.49875,7.26375 -0.9875,0.65 -2.1125,0.915 -3.20875,0.84625 l -4.60625,-6.99875 z m -20.47625,6.8425 c 0,9.745 7.435,17.7475 16.94,18.65875 l 0,-10.35 c -0.6875,0 -1.25,-0.5625 -1.25,-1.25 l 0,-2.3775 -6.9875,3.41125 -2.0625,-3.0775 12.335,-10.48125 4.25375,6.46625 -2.53875,1.24 0,4.81875 c 0,0.6875 -0.5625,1.25 -1.25,1.25 l 0,10.40625 c 10.0325,-0.36625 18.06,-8.5925 18.06,-18.715 0,-10.355 -8.395,-18.75 -18.75,-18.75 -10.355,0 -18.75,8.395 -18.75,18.75" />
  <path
     inkscape:connector-curvature="0"
     style="fill:#211d1d;fill-opacity:1;fill-rule:nonzero;stroke:none"
     id="path3195"
     d="m 262.305,388.045 -1.19,-0.8825 -1.765,-0.17625 -0.2625,0.4275 -0.35625,-0.1175 -0.175,-0.6625 -0.52875,-0.0362 0.22,-0.62625 -0.44125,-0.0438 -0.44249,0.35375 -0.30751,-0.44125 0.265,-0.75 1.19125,-0.1775 0.21875,0.61875 0.31,-0.045 0,-0.57375 0.8375,-1.14625 1.06,-0.57375 1.36625,-0.61625 -0.97125,-2.1625 -0.44,0.265 -0.3525,-0.97 -0.83875,0.045 -0.21875,1.72 -0.30875,0.0437 -1.28125,-1.3675 0.265,-0.7075 1.325,-0.2625 0,-1.6775 -3.31,0.35375 -1.71875,-1.015 -0.79375,0.75 -2.1625,-1.19125 -1.19,0.705 0.44,0.66375 -0.485,0 -0.1325,0.48375 0.6625,0.0888 -0.6625,0.52875 0.22,0.75 0.57375,0.13375 -0.925,0.74875 1.455,-0.705 0.79375,-0.4425 1.27875,0.795 1.01625,1.72 0,1.54375 0.61625,1.14625 1.01375,1.58875 1.23625,0.44 0.52875,0.265 0.6175,0.79375 0.43,-0.0675 -0.47375,0.77375 0.39625,1.5875 0.83875,0.75 -1.01625,4.1025 0.355,0.8825 1.01375,0.265 -0.61625,-0.66375 0.8375,-1.58625 1.8075,-1.54375 0.1325,-0.70625 0.8825,-0.1325 0.88375,-1.80875 -1.545,-0.74875 -0.1775,-0.70625" />
  <path
     inkscape:connector-curvature="0"
     style="fill:#211d1d;fill-opacity:1;fill-rule:nonzero;stroke:none"
     id="path3197"
     d="m 283.375,388.355 -0.095,0.75 -0.635,-0.23125 0.1175,-0.405 -0.695,-0.0563 -0.9,0.8375 -0.95375,0.3475 0.2325,1.2975 -0.0875,0.25875 0.3475,0.2025 1.41625,-0.35125 0.54875,0.31875 0.26,-0.145 0.17375,0.525 0.72125,0.2025 0.52125,-0.31875 0.29,-1.5575 -0.78125,-0.78 -0.48125,-0.895" />
  <path
     inkscape:connector-curvature="0"
     style="fill:#211d1d;fill-opacity:1;fill-rule:nonzero;stroke:none"
     id="path3199"
     d="m 279.86625,387.63125 0.7525,0.145 0.3475,-1.07 -0.20375,-0.17375 -1.01,0.63625 0.11375,0.4625" />
  <path
     inkscape:connector-curvature="0"
     style="fill:#211d1d;fill-opacity:1;fill-rule:nonzero;stroke:none"
     id="path3201"
     d="m 284.2325,388.41125 -0.26,-0.54875 -1.18624,-0.5775 -0.60626,0.0575 0.78,0.80875 0.44625,0.0325 0.19,-0.17625 0.63625,0.40375" />
  <path
     inkscape:connector-curvature="0"
     style="fill:#211d1d;fill-opacity:1;fill-rule:nonzero;stroke:none"
     id="path3203"
     d="m 283.59625,380.78 -0.20124,0 -0.03,1.04125 -0.52,1.09875 -0.665,0.49125 -0.0287,0.4325 1.21375,-0.72125 0.0575,-0.7525 0.40375,-0.375 -0.31625,-0.26 0.1725,-0.6075 -0.0863,-0.3475" />
  <path
     inkscape:connector-curvature="0"
     style="fill:#211d1d;fill-opacity:1;fill-rule:nonzero;stroke:none"
     id="path3205"
     d="m 286.71875,391.27375 0.0862,0.81 -0.89625,0.83875 0.57875,0.0575 0.51875,-0.78125 0.40625,-0.54875 -0.26,-0.0275 -0.43375,-0.34875" />
  <path
     inkscape:connector-curvature="0"
     style="fill:#211d1d;fill-opacity:1;fill-rule:nonzero;stroke:none"
     id="path3207"
     d="m 267.39625,379.10875 0,0.8425 0.585,-0.25625 0.16376,-0.25875 -0.63126,-1.2175 -0.37374,0.25875 0.0225,0.32625 -0.35126,0.42375 -0.0237,0.4425 0.42125,0 0.1875,-0.56125" />
  <path
     inkscape:connector-curvature="0"
     style="fill:#211d1d;fill-opacity:1;fill-rule:nonzero;stroke:none"
     id="path3209"
     d="m 272.68375,389.02625 -0.0225,0.9375 0.37625,0.1625 0.3725,-1.1225 -0.0937,-0.4675 -0.6325,0.49" />
  <path
     inkscape:connector-curvature="0"
     style="fill:#211d1d;fill-opacity:1;fill-rule:nonzero;stroke:none"
     id="path3211"
     d="m 273.15375,382.89625 0.115,-0.445 -0.25625,-0.655 0.72626,-0.3975 0,0.35 -0.28251,0.1175 0.23626,0.35125 0.115,0.725 -0.65375,-0.0463 z m -0.84375,-0.39875 -0.51374,-0.13875 -0.7025,0.115 -0.16376,-0.3025 0.375,-0.655 1.21625,0.6325 -0.21125,0.34875 z m 14.14875,-3.45125 1.04125,-0.57875 -0.29,-0.80875 -7.6675,-1.08125 c 0,0 -4.6475,0.49125 -7.21,0.76125 l -2.22,-0.40875 -0.89125,0.49 -0.35,0.86625 -0.4225,0.3275 -0.0237,0.725 0.235,0.14 0.49,-0.28 0.23625,0.74875 0.42,-0.16375 0.28125,-0.75 -0.28125,-0.30375 0.25875,-0.56 0.3025,-0.37625 0.18375,0.03 -0.17125,0.43875 -0.19875,0.14 0.0725,0.17875 -0.0137,0.03 0.0262,0.003 0.17125,0.42 0.4925,-0.13875 0.17,0.19875 -0.545,0.17625 0.11875,0.44375 -0.3525,-0.1175 -0.25625,0.655 -0.915,-0.0237 -0.16375,-0.4675 -0.21,0.28125 0.0712,0.30375 -0.32875,0.025 -0.3975,0.53625 -0.725,0.235 0.1875,0.3975 0.3025,0.49125 -0.9575,-0.07 0.0462,0.93625 0.75,0.1175 0.49,-0.7725 0.70375,-0.35125 0.3025,0.35125 0.42125,0.5625 0.305,-0.3525 -0.585,-0.3975 -0.0237,-0.37375 0.28,0.14 0.46875,0.375 -0.0225,0.3725 0.35,0.44625 0.165,-0.5625 0.18625,0.0937 0.25625,0.445 0.79375,0.1325 -0.13,0.43375 -0.2975,0.1775 -1.14875,-0.29375 -0.28875,0.40375 -0.75125,-0.49125 -0.11625,-0.49 -1.84875,0.3175 -0.955,1.15625 -0.17375,1.56125 0.985,0.95375 1.7625,-0.11625 0.52,1.61875 -0.20125,0.92625 0.8375,2.0225 0.95375,-0.17375 0.95375,-1.79125 0.52,-0.40625 -0.14375,-1.24125 0.925,-0.83875 0.28875,-1.01125 -0.925,0.4325 -0.945,-2.16375 0.19375,-0.0325 0.92625,1.82125 1.79125,-1.07 -0.60875,-0.4625 -0.46125,0.2325 -0.28875,-0.695 0.2025,-0.115 0.40375,0.345 1.38875,0.26125 0.57625,0.69375 0.52125,1.30125 0.405,-0.40375 0,-0.4925 1.1275,-0.78125 0.405,0.86875 0.335,-0.085 0.0688,0.865 0.3475,0.635 -0.75125,-0.375 0.54875,0.78 0.6075,0.57875 1.445,0.26 -0.78,-0.3175 -0.58,-0.2025 -0.20125,-0.92625 -0.46375,-0.52125 0.0187,-0.5225 0.53125,0.5525 0.52,-0.43375 -0.49,-0.7225 0.23,-0.37625 1.07125,-0.0575 0.49,-0.895 -0.34625,-0.98375 0.43375,-0.4625 0.31875,0.43375 0.115,0.54875 0.375,-0.20125 -0.14375,-0.6075 0.31875,-0.4625 0.52,-0.0863 0.60625,-1.67625 -0.52,-0.37625 0.72125,-0.695 0.955,0.0588 0.78125,-0.63625 0.60625,-0.0875 -0.9825,1.18625 0.03,1.04 0.75125,-0.925 -0.0288,-0.665 0.78,-0.1725" />
  <path
     inkscape:connector-curvature="0"
     style="fill:#211d1d;fill-opacity:1;fill-rule:nonzero;stroke:none"
     id="path3213"
     d="m 263.32625,377.255 -0.6525,-0.17625 -0.80375,0.85875 1.035,2.69625 0.49,0.12 0.0387,-0.87625 0.33125,-0.20375 0.0187,-0.3325 0.3425,-0.64125 -0.23875,-0.4875 -0.56125,-0.9575" />
  <g
     id="g3513"
     transform="translate(-52.57411,3.0934934)"
     inkscape:export-filename="/home/chrism/dev/blob/add.png"
     inkscape:export-xdpi="90"
     inkscape:export-ydpi="90">
    <path
       sodipodi:nodetypes="csssc"
       inkscape:connector-curvature="0"
       style="fill:#1a1a1a;fill-opacity:1;fill-rule:nonzero;stroke:none"
       id="path3509"
       d="m -151.67589,70.420271 c -10.355,0 -18.75,8.39375 -18.75,18.75 0,10.35375 8.395,18.749999 18.75,18.749999 10.35501,0 18.75,-8.396249 18.75,-18.749999 0,-10.35625 -8.39499,-18.75 -18.75,-18.75" />
    <path
       inkscape:connector-curvature="0"
       style="fill:#ffffff;fill-opacity:1;fill-rule:nonzero;stroke:none"
       id="path3511"
       d="m -148.0243,79.013763 -5.95141,0 0,7.025896 -7.02429,0 0,5.949815 7.02429,0 0,7.024289 5.95141,0 0,-7.024289 7.0243,0 0,-5.949815 -7.0243,0 0,-7.025896" />
  </g>
  <g
     id="g3590"
     inkscape:export-filename="/home/chrism/dev/blob/audio-mute.png"
     inkscape:export-xdpi="90"
     inkscape:export-ydpi="90"
     transform="translate(0,3.4e-6)">
    <path
       sodipodi:nodetypes="csssc"
       d="m -254.25,73.513772 c -10.355,0 -18.75,8.395 -18.75,18.75 0,10.354988 8.395,18.749988 18.75,18.749988 10.355,0 18.75,-8.395 18.75,-18.749988 0,-10.355 -8.395,-18.75 -18.75,-18.75"
       id="path3525"
       style="fill:#1a1a1a;fill-opacity:1;fill-rule:nonzero;stroke:none"
       inkscape:connector-curvature="0" />
    <path
       inkscape:connector-curvature="0"
       style="fill:#ffffff;fill-opacity:1;fill-rule:nonzero;stroke:none"
       id="path3529"
       d="m -238.41209,90.024781 -1.89701,-1.89701 -2.2395,2.2395 -2.23898,-2.23899 -1.8965,1.8965 2.23898,2.23899 -2.23898,2.23898 1.89701,1.89701 2.23898,-2.23899 2.23899,2.23899 1.89649,-1.89649 -2.23897,-2.23899 2.23949,-2.2395" />
    <path
       inkscape:connector-curvature="0"
       style="fill:#ffffff;fill-opacity:1;fill-rule:nonzero;stroke:none"
       id="path3583"
       d="m -248.93875,103.13626 -7.72375,-6.341238 -5.15751,0 0,-9.06125 5.16251,0 7.7225,-6.34125 -0.004,21.743738 z"
       sodipodi:nodetypes="cccccccc" />
  </g>
  <g
     id="g3595"
     inkscape:export-filename="/home/chrism/dev/blob/audio.png"
     inkscape:export-xdpi="90"
     inkscape:export-ydpi="90">
    <path
       inkscape:export-ydpi="90"
       inkscape:export-xdpi="90"
       inkscape:export-filename="/home/chrism/dev/blob/audio.png"
       inkscape:connector-curvature="0"
       style="fill:#1a1a1a;fill-opacity:1;fill-rule:nonzero;stroke:none"
       id="path3531"
       d="m -254.25,123.51377 c -10.355,0 -18.75,8.395 -18.75,18.75 0,10.35499 8.395,18.74999 18.75,18.74999 10.355,0 18.75,-8.395 18.75,-18.74999 0,-10.355 -8.395,-18.75 -18.75,-18.75"
       sodipodi:nodetypes="csssc" />
    <path
       sodipodi:nodetypes="cccccccc"
       d="m -248.93875,153.13626 -7.72375,-6.34124 -5.15751,0 0,-9.06125 5.16251,0 7.7225,-6.34125 -0.004,21.74374 z"
       id="path3585"
       style="fill:#ffffff;fill-opacity:1;fill-rule:nonzero;stroke:none"
       inkscape:connector-curvature="0"
       inkscape:export-filename="/home/chrism/dev/blob/audio.png"
       inkscape:export-xdpi="90"
       inkscape:export-ydpi="90" />
  </g>
  <g
     id="g3623"
     transform="translate(-30,2.2500034)"
     inkscape:export-filename="/home/chrism/dev/blob/remove.png"
     inkscape:export-xdpi="90"
     inkscape:export-ydpi="90">
    <path
       id="path3599"
       d="m -124,71.263769 c -10.355,0 -18.75,8.395 -18.75,18.75 0,10.354991 8.395,18.749991 18.75,18.749991 10.355,0 18.75,-8.395 18.75,-18.749991 0,-10.355 -8.395,-18.75 -18.75,-18.75"
       style="fill:#1a1a1a;fill-opacity:1;fill-rule:nonzero;stroke:none"
       inkscape:connector-curvature="0" />
    <path
       d="m -114.82479,85.046836 -4.20828,-4.208282 -4.96806,4.968059 -4.96692,-4.966923 -4.20716,4.207154 4.96692,4.966923 -4.96692,4.966923 4.20828,4.208284 4.96693,-4.966924 4.96693,4.966924 4.20715,-4.207149 -4.96693,-4.96693 4.96806,-4.968059"
       id="path3523"
       style="fill:#ffffff;fill-opacity:1;fill-rule:nonzero;stroke:none"
       inkscape:connector-curvature="0" />
  </g>
  <g
     inkscape:export-ydpi="90"
     inkscape:export-xdpi="90"
     inkscape:export-filename="/home/chrism/dev/blob/add-hover.png"
     transform="translate(-52.57411,103.09349)"
     id="g3627">
    <path
       d="m -151.67589,70.420271 c -10.355,0 -18.75,8.39375 -18.75,18.75 0,10.35375 8.395,18.749999 18.75,18.749999 10.35501,0 18.75,-8.396249 18.75,-18.749999 0,-10.35625 -8.39499,-18.75 -18.75,-18.75"
       id="path3629"
       style="fill:#782121;fill-opacity:1;fill-rule:nonzero;stroke:none"
       inkscape:connector-curvature="0"
       sodipodi:nodetypes="csssc" />
    <path
       d="m -148.0243,79.013763 -5.95141,0 0,7.025896 -7.02429,0 0,5.949815 7.02429,0 0,7.024289 5.95141,0 0,-7.024289 7.0243,0 0,-5.949815 -7.0243,0 0,-7.025896"
       id="path3631"
       style="fill:#ffffff;fill-opacity:1;fill-rule:nonzero;stroke:none"
       inkscape:connector-curvature="0" />
  </g>
  <g
     transform="translate(0,100)"
     inkscape:export-ydpi="90"
     inkscape:export-xdpi="90"
     inkscape:export-filename="/home/chrism/dev/blob/audio-mute-hover.png"
     id="g3633">
    <path
       inkscape:connector-curvature="0"
       style="fill:#782121;fill-opacity:1;fill-rule:nonzero;stroke:none"
       id="path3635"
       d="m -254.25,73.513772 c -10.355,0 -18.75,8.395 -18.75,18.75 0,10.354988 8.395,18.749988 18.75,18.749988 10.355,0 18.75,-8.395 18.75,-18.749988 0,-10.355 -8.395,-18.75 -18.75,-18.75"
       sodipodi:nodetypes="csssc" />
    <path
       d="m -238.41209,90.024781 -1.89701,-1.89701 -2.2395,2.2395 -2.23898,-2.23899 -1.8965,1.8965 2.23898,2.23899 -2.23898,2.23898 1.89701,1.89701 2.23898,-2.23899 2.23899,2.23899 1.89649,-1.89649 -2.23897,-2.23899 2.23949,-2.2395"
       id="path3637"
       style="fill:#ffffff;fill-opacity:1;fill-rule:nonzero;stroke:none"
       inkscape:connector-curvature="0" />
    <path
       sodipodi:nodetypes="cccccccc"
       d="m -248.93875,103.13626 -7.72375,-6.341238 -5.15751,0 0,-9.06125 5.16251,0 7.7225,-6.34125 -0.004,21.743738 z"
       id="path3639"
       style="fill:#ffffff;fill-opacity:1;fill-rule:nonzero;stroke:none"
       inkscape:connector-curvature="0" />
  </g>
  <g
     inkscape:export-ydpi="90"
     inkscape:export-xdpi="90"
     inkscape:export-filename="/home/chrism/dev/blob/audio-hover.png"
     id="g3641"
     transform="translate(0,100)">
    <path
       sodipodi:nodetypes="csssc"
       d="m -254.25,123.51377 c -10.355,0 -18.75,8.395 -18.75,18.75 0,10.35499 8.395,18.74999 18.75,18.74999 10.355,0 18.75,-8.395 18.75,-18.74999 0,-10.355 -8.395,-18.75 -18.75,-18.75"
       id="path3643"
       style="fill:#782121;fill-opacity:1;fill-rule:nonzero;stroke:none"
       inkscape:connector-curvature="0"
       inkscape:export-filename="/home/chrism/dev/blob/audio.png"
       inkscape:export-xdpi="90"
       inkscape:export-ydpi="90" />
    <path
       inkscape:export-ydpi="90"
       inkscape:export-xdpi="90"
       inkscape:export-filename="/home/chrism/dev/blob/audio.png"
       inkscape:connector-curvature="0"
       style="fill:#ffffff;fill-opacity:1;fill-rule:nonzero;stroke:none"
       id="path3645"
       d="m -248.93875,153.13626 -7.72375,-6.34124 -5.15751,0 0,-9.06125 5.16251,0 7.7225,-6.34125 -0.004,21.74374 z"
       sodipodi:nodetypes="cccccccc" />
  </g>
  <g
     inkscape:export-ydpi="90"
     inkscape:export-xdpi="90"
     inkscape:export-filename="/home/chrism/dev/blob/remove-hover.png"
     transform="translate(-30,102.25)"
     id="g3647">
    <path
       inkscape:connector-curvature="0"
       style="fill:#782121;fill-opacity:1;fill-rule:nonzero;stroke:none"
       d="m -124,71.263769 c -10.355,0 -18.75,8.395 -18.75,18.75 0,10.354991 8.395,18.749991 18.75,18.749991 10.355,0 18.75,-8.395 18.75,-18.749991 0,-10.355 -8.395,-18.75 -18.75,-18.75"
       id="path3649" />
    <path
       inkscape:connector-curvature="0"
       style="fill:#ffffff;fill-opacity:1;fill-rule:nonzero;stroke:none"
       id="path3651"
       d="m -114.82479,85.046836 -4.20828,-4.208282 -4.96806,4.968059 -4.96692,-4.966923 -4.20716,4.207154 4.96692,4.966923 -4.96692,4.966923 4.20828,4.208284 4.96693,-4.966924 4.96693,4.966924 4.20715,-4.207149 -4.96693,-4.96693 4.96806,-4.968059" />
  </g>
</svg>
